<?xml version="1.0" ?>
<!DOCTYPE svg PUBLIC '-//W3C//DTD SVG 1.1//EN' 'http://www.w3.org/Graphics/SVG/1.1/DTD/svg11.dtd'><svg id="Layer_1"
  version="1.1" viewBox="0 0 100 100" xmlns="http://www.w3.org/2000/svg" fill="currentColor">
  <g>
    <path
      d="M49.858,3.911c-25.352,0-45.978,20.625-45.978,45.978s20.625,45.978,45.978,45.978s45.978-20.625,45.978-45.978   S75.21,3.911,49.858,3.911z M49.858,93.866c-24.25,0-43.978-19.728-43.978-43.978S25.609,5.911,49.858,5.911   s43.978,19.728,43.978,43.978S74.108,93.866,49.858,93.866z" />
    <path
      d="M70.749,60.755c0.565-3.659-0.624-7.33-3.279-9.987l-0.27-0.271c-0.137,0.067-0.283,0.113-0.438,0.113h0   c-0.266,0-0.52-0.105-0.708-0.293l-4.735-4.74c-0.312-0.312-0.363-0.775-0.175-1.15l-3.73-3.739   c-0.169-0.17-0.396-0.261-0.634-0.279l-5.796,5.8c0.018,0.228,0.102,0.453,0.276,0.627l3.874,3.883   c0.025-0.002,0.049-0.015,0.074-0.015c0.266,0,0.521,0.105,0.708,0.294l4.731,4.742c0.214,0.215,0.299,0.502,0.277,0.783   l0.396,0.396c1.146,1.147,1.15,3.011,0.007,4.154c-1.108,1.108-3.043,1.108-4.152-0.001c-0.077-0.077-0.171-0.127-0.267-0.172   l-6.053,6.067c0.046,0.091,0.095,0.182,0.171,0.258c2.196,2.2,5.118,3.411,8.228,3.411c0.821,0,1.636-0.086,2.435-0.256   c1.038,2.91,3.828,4.93,6.991,4.93c4.089,0,7.416-3.331,7.416-7.424C76.095,64.562,73.86,61.663,70.749,60.755z M68.68,73.312   c-2.571,0-4.805-1.826-5.312-4.341c-0.056-0.277-0.227-0.517-0.469-0.662c-0.156-0.093-0.333-0.141-0.511-0.141   c-0.099,0-0.198,0.015-0.294,0.044c-0.918,0.283-1.874,0.426-2.838,0.426c-2.239,0-4.36-0.758-6.071-2.153l3.355-3.36   c0.798,0.527,1.734,0.811,2.713,0.811c1.319,0,2.559-0.514,3.49-1.447c1.921-1.923,1.917-5.055-0.007-6.98l-9.353-9.376   l3.323-3.322l9.349,9.372c2.402,2.403,3.355,5.807,2.552,9.105c-0.067,0.274-0.015,0.564,0.144,0.798s0.409,0.39,0.689,0.429   c2.654,0.373,4.656,2.682,4.656,5.373C74.095,70.878,71.666,73.312,68.68,73.312z" />
    <path
      d="M35.548,50.76l4.733,4.741c0.312,0.313,0.363,0.775,0.175,1.149l3.751,3.752c0.169,0.169,0.395,0.259,0.632,0.278   l5.792-5.804c-0.018-0.229-0.103-0.455-0.278-0.63l-3.886-3.888c-0.283,0.019-0.571-0.064-0.776-0.269l-4.736-4.74   c-0.215-0.215-0.3-0.502-0.278-0.784l-0.396-0.396c-0.553-0.553-0.857-1.291-0.857-2.078c0-0.789,0.308-1.529,0.866-2.087   c1.108-1.11,3.042-1.111,4.152-0.001c0.077,0.077,0.17,0.13,0.266,0.178l6.061-6.064c-0.047-0.095-0.099-0.189-0.178-0.269   c-2.197-2.199-5.118-3.41-8.223-3.41c-0.563,0-1.126,0.041-1.683,0.122c-0.941-3.081-3.776-5.225-7.085-5.226   c-4.09,0-7.417,3.332-7.417,7.426c0,3.148,1.926,5.878,4.793,6.953c-0.798,3.83,0.369,7.82,3.16,10.614l0.262,0.262   C34.77,50.411,35.249,50.46,35.548,50.76z M33.135,39.318c0.08-0.265,0.045-0.552-0.095-0.791c-0.14-0.239-0.372-0.41-0.642-0.471   c-2.483-0.563-4.218-2.741-4.218-5.296c0-2.992,2.43-5.426,5.417-5.426c2.671,0.001,4.918,1.913,5.344,4.546   c0.044,0.274,0.201,0.517,0.431,0.671c0.23,0.154,0.513,0.204,0.785,0.143c0.723-0.17,1.466-0.256,2.209-0.256   c2.235,0,4.355,0.758,6.066,2.153l-3.356,3.361c-0.798-0.527-1.733-0.81-2.711-0.81c-1.319,0-2.56,0.515-3.491,1.448   c-0.935,0.934-1.45,2.177-1.451,3.499c-0.001,1.322,0.511,2.562,1.443,3.493l9.366,9.37l-3.319,3.327l-9.365-9.367   C33.042,46.405,32.117,42.728,33.135,39.318z" />
    <path
      d="M40.955,43.936c-0.175,0.175-0.26,0.401-0.278,0.63c-0.022,0.281,0.063,0.568,0.278,0.784l4.736,4.74   c0.205,0.204,0.493,0.287,0.776,0.269c0.236-0.015,0.469-0.098,0.639-0.269l3.878-3.88l5.796-5.8l0.394-0.394   c1.115-1.115,3.041-1.116,4.147-0.009c1.146,1.146,1.145,3.012-0.001,4.158c-0.078,0.078-0.128,0.17-0.175,0.264   c-0.188,0.375-0.138,0.837,0.175,1.15l4.735,4.74c0.188,0.188,0.442,0.293,0.708,0.293h0c0.155,0,0.301-0.045,0.438-0.113   c0.097-0.048,0.192-0.103,0.27-0.181c2.735-2.741,3.915-6.651,3.203-10.417c3.122-0.899,5.362-3.796,5.362-7.139   c0-4.095-3.328-7.426-7.417-7.426c-3.313,0-6.201,2.225-7.117,5.326c-0.736-0.144-1.486-0.217-2.241-0.217   c-3.108,0-6.032,1.213-8.233,3.415l-0.259,0.259l-6.061,6.064L40.955,43.936z M52.441,35.273c1.823-1.825,4.244-2.829,6.818-2.829   c0.922,0,1.836,0.131,2.718,0.39c0.277,0.083,0.58,0.039,0.825-0.12s0.408-0.415,0.448-0.703c0.368-2.666,2.675-4.676,5.367-4.676   c2.987,0,5.417,2.434,5.417,5.426c0,2.716-2.021,5.029-4.7,5.38c-0.289,0.038-0.546,0.2-0.706,0.443s-0.206,0.544-0.125,0.824   c0.873,3.052,0.19,6.318-1.778,8.751l-3.356-3.359c1.26-1.916,1.049-4.523-0.633-6.207c-0.93-0.931-2.166-1.443-3.48-1.443   c-1.318,0-2.559,0.515-3.496,1.451l-9.361,9.368l-3.323-3.325L52.441,35.273z" />
    <path
      d="M60.647,57.153c0.175-0.175,0.259-0.4,0.277-0.629c0.022-0.281-0.062-0.568-0.277-0.783L55.916,51   c-0.188-0.188-0.442-0.294-0.708-0.294c-0.025,0-0.049,0.013-0.074,0.015c-0.237,0.018-0.464,0.109-0.634,0.279l-3.869,3.877   l-5.792,5.804l-0.399,0.4c-1.106,1.109-3.045,1.108-4.157-0.006c-1.146-1.147-1.146-3.014-0.001-4.16   c0.078-0.078,0.128-0.17,0.174-0.264c0.188-0.374,0.137-0.836-0.175-1.149l-4.733-4.741c-0.299-0.3-0.778-0.35-1.152-0.17   c-0.094,0.045-0.187,0.095-0.263,0.17c-2.663,2.667-3.863,6.497-3.244,10.185c-2.852,1.081-4.77,3.812-4.77,6.942   c0,4.094,3.328,7.424,7.418,7.424h0c3.149-0.001,5.883-1.941,6.951-4.822c0.621,0.101,1.25,0.152,1.88,0.152   c3.109,0,6.029-1.21,8.222-3.408l0.264-0.265l6.053-6.067L60.647,57.153z M49.175,65.822c-1.814,1.818-4.231,2.82-6.806,2.82   c-0.787,0-1.572-0.096-2.333-0.285c-0.26-0.063-0.536-0.021-0.764,0.119c-0.229,0.141-0.391,0.367-0.451,0.628   c-0.568,2.476-2.741,4.206-5.283,4.208c-2.987,0-5.418-2.434-5.418-5.424c0-2.53,1.713-4.702,4.166-5.282   c0.261-0.062,0.486-0.226,0.625-0.455c0.139-0.229,0.18-0.505,0.114-0.765c-0.752-2.959-0.042-6.117,1.854-8.466l3.354,3.36   c-1.258,1.916-1.046,4.523,0.635,6.208c0.935,0.936,2.177,1.452,3.5,1.452c1.32,0,2.559-0.514,3.489-1.446l9.352-9.372l3.318,3.326   L49.175,65.822z" />
  </g>
</svg>